<?xml version="1.0" encoding="UTF-8"?>
<svg width="48px" height="36px" viewBox="0 0 48 36" version="1.1" xmlns="http://www.w3.org/2000/svg" xmlns:xlink="http://www.w3.org/1999/xlink">
    <!-- Generator: Sketch 48.2 (47327) - http://www.bohemiancoding.com/sketch -->
    <title>FitnessBody-Copy-path</title>
    <desc>Created with Sketch.</desc>
    <defs></defs>
    <g id="LP---2" stroke="none" stroke-width="1" fill="none" fill-rule="evenodd" transform="translate(-616.000000, -20.000000)">
        <path d="M652.527591,33.8240419 C652.673786,33.7862426 652.815174,33.7337172 652.951754,33.666466 C653.134642,33.5483552 653.307888,33.4191826 653.466635,33.2661794 C653.908369,32.8464639 654.183107,32.3364309 654.344717,31.7573303 C654.511714,31.1676045 654.549423,30.5672528 654.522488,29.9615882 C654.506327,29.5896892 654.457844,29.2231025 654.350104,28.8671417 C654.139031,28.1865944 653.762798,27.63877 653.230623,27.2191219 C652.91656,27.0067939 652.574382,26.8805851 652.204088,26.8404955 C652.069095,26.8258802 651.93403,26.8132121 651.798895,26.8024913 L642.248526,26.8024913 L642.248526,20.0014223 C642.337289,20.0015428 642.419583,20.0018399 642.495407,20.0023138 C645.413061,20 648.219691,20 651.020934,20 C651.575795,20 652.130657,20.031877 652.685519,20.069067 C653.687502,20.138134 654.678711,20.2815809 655.659146,20.5047207 C656.537228,20.7066087 657.388375,20.9988154 658.191039,21.4132173 C658.885962,21.7744911 659.527016,22.2048318 660.076491,22.7626806 C660.679835,23.3683452 661.153892,24.064328 661.509434,24.8400036 C661.875751,25.6422434 662.080457,26.486986 662.18281,27.3529804 C662.225906,27.6930023 662.242067,28.0383372 662.263615,28.3836728 C662.285163,28.7715106 662.279776,29.1593484 662.252841,29.5418733 C662.188197,30.6894486 661.940395,31.7892074 661.396307,32.8092739 C661.035378,33.4946314 660.550547,34.0896702 659.990299,34.6209549 C659.397728,35.1841167 658.724352,35.6463344 658.00788,36.0394852 C657.84627,36.1298033 657.679273,36.2094962 657.517663,36.294502 C657.485341,36.3316919 657.442245,36.3370049 657.426084,36.3795071 C658.137169,36.6132728 658.718965,36.8310997 659.279214,37.1126805 C660.044169,37.4952054 660.744479,37.9680484 661.363985,38.5630878 C661.951169,39.1262495 662.430612,39.7744165 662.823864,40.4863381 C663.367951,41.4745276 663.696558,42.537097 663.868943,43.6474823 C663.992844,44.4603479 664.019779,45.2785265 663.987457,46.1020173 C663.944361,47.0848939 663.782751,48.0465194 663.459531,48.9762678 C663.098601,50.0122732 662.549127,50.942021 661.843428,51.7920765 C661.293267,52.45278 660.6599,53.0083437 659.961392,53.485493 C657.710514,54.9641923 655.435537,55.7722968 653.174339,55.9076136 C651.791406,55.9903723 651.036153,56.0248453 648.246313,55.9806314 C646.74341,55.9806314 645.600371,55.9645924 644.817193,55.9325151 L642.248526,55.9325151 L642.248526,49.1848826 L651.85454,49.1848826 L652.380616,49.1848826 C652.761852,49.1793294 653.142521,49.1583532 653.522624,49.1219552 C653.779789,49.0089473 654.027488,48.8748002 654.263912,48.7159381 C655.023479,48.2112181 655.519084,47.5152346 655.783047,46.6545538 C655.896175,46.2932801 655.950045,45.9160682 655.97698,45.5388556 C656.03085,44.7791188 655.982367,44.0300072 655.804595,43.2862086 C655.707629,42.8718067 655.551406,42.4839689 655.341313,42.1173822 C655.034253,41.5860975 654.603293,41.1716956 654.075367,40.8529247 C654.034783,40.8289095 653.994688,40.8048942 653.95464,40.7811702 C653.786446,40.7081426 653.611199,40.6567221 653.428896,40.6269095 L638.947599,40.6269095 C638.947422,40.6274358 638.947164,45.7293043 638.946825,55.9325151 L632.123308,55.9325151 L632.123308,40.6269095 L621.557864,40.6269095 L616,40.6268677 L616,33.8240419 L632.123308,33.8240419 L632.123308,26.8024913 L616,26.8024913 L616,25.9389842 L616,20 L638.946825,20 L638.946825,26.8024913 L638.946825,33.8240419 L652.527591,33.8240419 Z" id="FitnessBody-Copy-path" fill="#231F20"></path>
    </g>
</svg>