<?xml version="1.0" encoding="UTF-8"?>
<svg width="12px" height="12px" viewBox="0 0 12 12" version="1.1" xmlns="http://www.w3.org/2000/svg" xmlns:xlink="http://www.w3.org/1999/xlink">
    <!-- Generator: Sketch 48.2 (47327) - http://www.bohemiancoding.com/sketch -->
    <title>Shape</title>
    <desc>Created with Sketch.</desc>
    <defs></defs>
    <g id="LP---2" stroke="none" stroke-width="1" fill="none" fill-rule="evenodd" transform="translate(-675.000000, -731.000000)">
        <g id="Group-3" transform="translate(579.000000, 698.000000)" fill="#818181" fill-rule="nonzero">
            <g id="Group-9" transform="translate(0.000000, 19.000000)">
                <g id="Group-10">
                    <g id="Group-6">
                        <g id="Group-8">
                            <g id="Group-2">
                                <g id="Shape" transform="translate(96.000000, 14.000000)">
                                    <g>
                                        <path d="M11.547018,0.453198825 C11.2449206,0.151020669 10.8828962,0 10.4611364,0 L1.53913722,0 C1.11724062,0 0.755325699,0.151075396 0.453146164,0.453198825 C0.151021358,0.755240163 0,1.11720817 0,1.53902074 L0,10.4608972 C0,10.882655 0.150993994,11.2447051 0.453146164,11.5467738 C0.755325699,11.8488699 1.11732272,12 1.53913722,12 L10.461027,12 C10.8827046,12 11.2448385,11.8488699 11.5469359,11.5467738 C11.8491155,11.2447051 12,10.882655 12,10.4608972 L12,1.53902074 C11.9999726,1.11712607 11.8491155,0.755349618 11.547018,0.453198825 Z M4.30874687,4.32416039 C4.78006266,3.86849882 5.34649537,3.64055859 6.00796289,3.64055859 C6.67454747,3.64055859 7.24352502,3.86849882 7.71495027,4.32416039 C8.18637551,4.77990404 8.42195132,5.33073682 8.42195132,5.97654925 C8.42195132,6.62227958 8.18637551,7.17313972 7.71495027,7.62874656 C7.24352502,8.08459967 6.67473902,8.31251254 6.00796289,8.31251254 C5.34652273,8.31251254 4.78014476,8.08440812 4.30874687,7.62874656 C3.83732162,7.17308499 3.60163636,6.62227958 3.60163636,5.97654925 C3.60163636,5.33073682 3.83732162,4.77993141 4.30874687,4.32416039 Z M10.6408351,10.1407136 C10.6408351,10.2760275 10.593824,10.3892588 10.5001573,10.4804623 C10.4062171,10.5715836 10.2944082,10.6171717 10.1640739,10.6171717 L1.81261202,10.6171717 C1.67721545,10.6171717 1.56384682,10.5715836 1.47277976,10.4804623 C1.38157589,10.3894504 1.336015,10.2760275 1.336015,10.1407136 L1.336015,5.07803236 L2.43754874,5.07803236 C2.33342911,5.4062061 2.28135561,5.747405 2.28135561,6.10149224 C2.28135561,7.10172027 2.64589747,7.9544302 3.37506328,8.66030611 C4.10431118,9.36590839 4.98189878,9.71887371 6.00793553,9.71887371 C6.68502784,9.71887371 7.30999193,9.55734535 7.88310142,9.23445282 C8.45601937,8.91136874 8.90886454,8.47267271 9.24243046,7.91792692 C9.57580484,7.36320849 9.74247835,6.7577029 9.74247835,6.1015196 C9.74247835,5.74743237 9.6902133,5.40631556 9.58609367,5.07805973 L10.6408899,5.07803236 L10.6408899,10.140741 L10.6408351,10.140741 L10.6408351,10.1407136 Z M10.6408351,3.16396373 C10.6408351,3.31501177 10.5887616,3.44263641 10.4844231,3.54678293 C10.3803035,3.65101155 10.2527603,3.70305745 10.1016295,3.70305745 L8.74230048,3.70305745 C8.59133385,3.70305745 8.46359917,3.65098418 8.35947954,3.54678293 C8.25533254,3.44263641 8.2032864,3.31501177 8.2032864,3.16396373 L8.2032864,1.87502052 C8.2032864,1.72917161 8.25533254,1.60288779 8.35947954,1.49608698 C8.46362654,1.3893409 8.59136122,1.33589945 8.74230048,1.33589945 L10.1016295,1.33589945 C10.2527603,1.33589945 10.3803308,1.38931353 10.4844231,1.49608698 C10.5887343,1.60288779 10.6408351,1.72917161 10.6408351,1.87502052 L10.6408351,3.16396373 Z"></path>
                                    </g>
                                </g>
                            </g>
                        </g>
                    </g>
                </g>
            </g>
        </g>
    </g>
</svg>