<?xml version="1.0" encoding="UTF-8"?>
<svg width="14px" height="12px" viewBox="0 0 14 12" version="1.1" xmlns="http://www.w3.org/2000/svg" xmlns:xlink="http://www.w3.org/1999/xlink">
    <!-- Generator: Sketch 48.2 (47327) - http://www.bohemiancoding.com/sketch -->
    <title>Twitter Copy 2-black</title>
    <desc>Created with Sketch.</desc>
    <defs></defs>
    <g id="LP---2" stroke="none" stroke-width="1" fill="none" fill-rule="evenodd" transform="translate(-633.000000, -731.000000)">
        <g id="Group-3" transform="translate(579.000000, 698.000000)" fill="#818181">
            <g id="Group-9" transform="translate(0.000000, 19.000000)">
                <g id="Group-10">
                    <g id="Group-6">
                        <g id="Group-8">
                            <g id="Group-2">
                                <path d="M68,15.547791 C67.4855902,15.7820513 66.9317368,15.9404719 66.350766,16.0112556 C66.9440629,15.6472252 67.3993074,15.0700012 67.6137818,14.3823883 C67.0582849,14.7194535 66.4444444,14.9646684 65.7886952,15.0961238 C65.266068,14.5239557 64.5191055,14.1666667 63.6924341,14.1666667 C62.1072959,14.1666667 60.8212714,15.485434 60.8212714,17.1117732 C60.8212714,17.3426628 60.8459236,17.5668111 60.895228,17.7825328 C58.5080707,17.659504 56.3920878,16.4882027 54.9745847,14.7042855 C54.7272407,15.1407849 54.5859013,15.6472252 54.5859013,16.1865294 C54.5859013,17.2078368 55.0929154,18.109486 55.8637084,18.6378356 C55.3936726,18.6235103 54.9499325,18.4895269 54.5620708,18.2704346 L54.5620708,18.3066691 C54.5620708,19.7341399 55.5522686,20.9248224 56.8670541,21.1944745 C56.626284,21.2635729 56.372366,21.2981221 56.1102307,21.2981221 C55.925339,21.2981221 55.744556,21.2804261 55.5695252,21.245877 C55.9351999,22.415493 56.9952456,23.2674251 58.2525092,23.290177 C57.2697071,24.0805947 56.0305218,24.5516432 54.6853319,24.5516432 C54.453601,24.5516432 54.2243353,24.5381606 54,24.5111954 C55.2712332,25.3454316 56.781593,25.8333333 58.4028878,25.8333333 C63.6866819,25.8333333 66.5751013,21.3461538 66.5751013,17.4538943 C66.5751013,17.3258096 66.572636,17.1977248 66.5677056,17.0721681 C67.1289546,16.6567353 67.616247,16.1384977 68,15.547791" id="Twitter-Copy-2"></path>
                            </g>
                        </g>
                    </g>
                </g>
            </g>
        </g>
    </g>
</svg>